<svg version="1.1" xmlns="http://www.w3.org/2000/svg" xmlns:xlink="http://www.w3.org/1999/xlink" x="0px" y="0px" viewBox="0 0 1000 1000" enable-background="new 0 0 1000 1000" xml:space="preserve">
<g><g><path d="M965.2,450.7c-5.2-1.6-11.6-3.7-18.9-6.1C868.8,419.6,783,392.8,745,392.8H469.4c-22.5,0-54.8,5.7-89,13.1c-7.2-5.9-19.1-15.6-32.1-25.3c-39.6-29.7-53.9-33.7-62.6-33.7c-10.5,0-28.8,3.7-45.1,8c-0.2,0-0.4,0.1-0.6,0.1c-4.3,1.1-8.4,2.3-12.3,3.5c-35.9,10.9-49.3,20.2-49.3,34.3c0,7.5,5.6,21.4,16.7,41.6c-28.6-6.2-67.8-17.9-96.6-26.5c-38.1-11.4-51-15.1-57.9-15.1c-8.2,0-17.5,0.6-24.1,7.8c-6.5,7-6.5,16.2-6.5,22.9c0,13.2,12.5,23.7,36.4,42.6c6.7,5.3,16.8,13.3,22.2,18.6c-5.4,5.4-15.5,13.3-22.2,18.6c-23.9,19-36.4,29.5-36.4,42.6c0,6.7,0,15.9,6.5,22.9c6.7,7.2,15.9,7.8,24.1,7.8c6.9,0,19.8-3.7,57.9-15.1c31.3-9.3,74.6-22.3,103.6-28c-5.1,8.2-8.3,17.3-8.3,27.7c0,19.4,24.7,34.5,32.2,38.7c12,6.6,23.5,10,33.6,10c7.1,0,13.6-1.7,18.9-5.1c18.7-11.8,60.9-45.5,62.6-46.9c1-0.8,1.9-1.7,2.6-2.7c46.7,10.9,95.2,21.4,125.6,21.4h1.1c2.7,18.5,9.5,34.5,15.5,45.6c1.4,2.6,14.2,26,23.4,29.8c1.9,0.8,3.9,1.2,5.9,1.2c4,0,7.9-1.6,10.9-4.5c16.2-16.2,28.6-49.6,33.2-72.1h113.1c0,12.9,4.3,25.7,12.7,37.7c8.9,12.7,19.4,20,20.5,20.8c2.6,1.8,5.6,2.7,8.6,2.7c1,0,1.9-0.1,2.9-0.3c4-0.8,7.6-3.1,9.8-6.5l37.4-56.1c48-6.9,134.8-35,181.8-50.2c7.3-2.4,13.7-4.4,18.9-6.1c14.8-4.7,24.8-18.4,24.8-34C990,469.1,980,455.4,965.2,450.7z M285.4,377.5c6.8,1.1,29.3,15.3,57,37c-7.7,1.8-15.4,3.6-22.9,5.4c-8.1,1.9-16.1,3.8-23.9,5.6L268,379.9C275,378.4,281.2,377.5,285.4,377.5z M237,387.8l27.1,44.9c-12.5,2.6-23.3,4.6-31.4,5.5c-9-15.2-18-31.7-21.8-40.8C216.6,394.5,226.3,391,237,387.8z M129.3,520.5c-13.5,3.9-26.9,7.9-39.6,11.7c-17.5,5.2-37,11-45.8,13.1c5.6-5.3,15.1-12.9,21.5-17.9c23.9-19,36.4-29.5,36.4-42.6S89.4,461,65.4,442.1c-6.4-5-15.9-12.6-21.5-17.9c8.8,2,28.3,7.8,45.8,13.1c12.7,3.8,26.1,7.8,39.6,11.7c-7.7,10.1-12.2,22.5-12.2,35.8C117.2,497.9,121.7,510.4,129.3,520.5z M262.1,578.9c-0.6,0.3-4.3,1-11.7-1.5c-12.5-4.3-23.5-13.4-26-17.5c0.4-6.5,4.3-13.9,18.9-27.2c16.4,2.8,38.9,7.9,63,13.6C292.4,557.2,272.7,572.3,262.1,578.9z M515,611.3c-5.2-8.9-10.9-21-13.5-34.7H528C525.3,587.2,520.6,600.4,515,611.3z M687.2,536.3c-2.5,3.1-4.8,6.4-6.6,9.6H469.4c-32.2,0-91-14-142.9-26.3c-44.4-10.5-82.7-19.6-102.1-19.6c-13.5,0-35.2,4.5-59.5,10.7c-10.3-4.5-17-14.7-17-26c0-11.3,6.8-21.5,17-26c24.3,6.3,46,10.7,59.5,10.7c0,0,0,0,0,0c0,0,0,0,0,0c19.4,0,57.7-9.1,102.1-19.6c15.8-3.7,32.1-7.6,48.2-11.2c4,0.7,8.2-0.2,11.6-2.6c32.6-7.1,63-12.5,83.1-12.5H745c1,0,2.1,0,3.3,0.1c-8.5,19.5-15.7,48.8-9.1,86.3C718,511.2,700.2,520.3,687.2,536.3z M711.7,598.8c-6.1-7.8-11.4-19.3-6.9-32.7c1.2-3.4,3.2-7,6.1-10.6c9.8-12.1,23-15.4,34.4-15.4c1.8,0,3.6,0.1,5.4,0.2L711.7,598.8z M955.9,489.5c-5.2,1.7-11.7,3.7-19.1,6.1c-37.7,12.2-101.7,32.9-148.5,43.6l0.1-0.1c2.5-3.8,3.2-8.5,1.9-12.9c-1.3-4.4-4.5-7.9-8.7-9.7c-0.7-0.3-4.6-1.9-10.4-3.4c-9.6-40.3,0.4-69.2,8.8-84.8c47.3,10,118.2,32.9,156.9,45.5c7.4,2.4,13.8,4.5,19,6.1c2.1,0.7,3.5,2.6,3.5,4.8S958,488.8,955.9,489.5z"/><path d="M852.2,454.1L852.2,454.1c-8.5,0-15.3,6.9-15.3,15.3c0,8.5,6.9,15.3,15.3,15.3s15.3-6.9,15.3-15.3C867.5,460.9,860.7,454.1,852.2,454.1z"/></g><g></g><g></g><g></g><g></g><g></g><g></g><g></g><g></g><g></g><g></g><g></g><g></g><g></g><g></g><g></g></g>
</svg>
