<?xml version="1.0" encoding="utf-8"?>
<!-- Generator: Adobe Illustrator 22.0.1, SVG Export Plug-In . SVG Version: 6.00 Build 0)  -->
<svg version="1.1" id="Слой_1" xmlns="http://www.w3.org/2000/svg" xmlns:xlink="http://www.w3.org/1999/xlink" x="0px" y="0px"
	 viewBox="0 0 74 40" style="enable-background:new 0 0 74 40;" xml:space="preserve">
<style type="text/css">
	.st0{fill:#FFFFFF;}
</style>
<g>
	<path class="st0" d="M5,14.2c3.7,0.6,7,1.9,9.9,4.2c0.6,0.5,1,0.5,1.6,0.1c8.3-5.1,17.4-7.7,27.3-7c5.2,0.4,10.2,1.7,14.9,4.1
		c1.9,1,3.6,2.3,5.3,3.6c-16.6-8.2-32.7-6.3-48.6,2.2C12.5,18.3,9.1,15.8,5,14.2z"/>
	<path class="st0" d="M37.7,6.8c-1.3-0.8-2.5-1.6-3.9-2.4c0.2,1.7,0.3,3.1,0.5,4.5c-0.1,0-0.2,0-0.3,0.1c-0.8-2.4-1.6-4.8-2.5-7.6
		c2,1,3.8,1.9,5.6,2.8c1-1.4,2-2.7,3.1-4.2c1.1,1.4,2.1,2.8,3.1,4.2c1.8-0.9,3.6-1.8,5.6-2.8c-0.9,2.7-1.7,5.1-2.5,7.5
		c-0.1,0-0.2,0-0.3-0.1c0.1-1.4,0.3-2.8,0.5-4.4C45.2,5.3,44,6,42.7,6.8c-0.8-1.1-1.7-2.1-2.5-3.2C39.4,4.7,38.6,5.7,37.7,6.8z"/>
	<path class="st0" d="M53.6,19.4c0,1-0.7,1.7-1.5,1.7s-1.5-0.8-1.5-1.6c0-0.9,0.7-1.4,1.8-1.3C53.3,18.2,53.7,18.6,53.6,19.4z"/>
	<path class="st0" d="M0.1,32.4V20.8h5.2c2.7,0,4,0.9,4,2.8c0,1.3-0.8,2.2-2.4,2.6c1.9,0.4,2.9,1.4,2.9,3.1c0,2.1-1.3,3.1-3.9,3.1
		C5.9,32.4,0.1,32.4,0.1,32.4z M3.5,25.9h1.1c1,0,1.5-0.7,1.5-2.1c0-1.3-0.5-2-1.5-2h-1L3.5,25.9L3.5,25.9z M3.5,31.5h1
		c1.3,0,1.9-0.7,1.9-2.2c0-1.6-0.7-2.5-2-2.5H3.5V31.5z"/>
	<path class="st0" d="M14.9,23.7c2.9,0,4.3,1.5,4.3,4.5s-1.4,4.5-4.3,4.5s-4.3-1.5-4.3-4.5S12,23.7,14.9,23.7z M14.8,24.4
		c-0.7,0-1,1.2-1,3.7s0.3,3.7,1,3.7s1.1-1.2,1.1-3.7S15.5,24.4,14.8,24.4z"/>
	<path class="st0" d="M24.3,23.7c2.9,0,4.3,1.5,4.3,4.5s-1.4,4.5-4.3,4.5S20,31.1,20,28.1C20.1,25.2,21.5,23.7,24.3,23.7z
		 M24.3,24.4c-0.7,0-1,1.2-1,3.7s0.3,3.7,1,3.7s1.1-1.2,1.1-3.7S25,24.4,24.3,24.4z"/>
	<path class="st0" d="M37.6,23.9l-1.8,2.2l2.6,6.4h-3.3l-1.5-3.8L33,29.4v3.1h-3.1V20.8c0.9,0,2-0.1,3.1-0.2v7.3l3.3-4L37.6,23.9
		L37.6,23.9z"/>
	<path class="st0" d="M42.7,20.8v10.4h4.8v1.2h-8.2V20.8H42.7L42.7,20.8z"/>
	<path class="st0" d="M56.8,32.1c-0.8,0.3-1.5,0.4-2.2,0.4c-1.1,0-1.7-0.3-2-1c-0.5,0.7-1.3,1-2.2,1c-1.8,0-2.7-0.8-2.7-2.5
		c0-1.3,0.8-2.2,2.5-2.7c1.5-0.5,2.3-1.1,2.3-1.7c0-0.9-0.4-1.3-1.3-1.3c-1,0-1.5,0.4-1.5,1.3c0,0.3,0.1,0.6,0.2,1.1l-1.6-0.3
		c0-0.3-0.1-0.5-0.1-0.8c0-1.4,1.2-2,3.7-2c2.4,0,3.6,0.6,3.6,1.9v5.2c0,0.5,0.2,0.8,0.5,0.8c0.1,0,0.3-0.1,0.5-0.2L56.8,32.1z
		 M52.3,27.3c-0.2,0.2-0.4,0.4-0.7,0.5c-0.7,0.4-1,1-1,1.9c0,1.1,0.2,1.7,0.7,1.7c0.7,0,1-0.6,1-1.7V27.3z"/>
	<path class="st0" d="M65,23.9l-1.8,2.2l2.6,6.4h-3.3L61,28.7l-0.6,0.7v3.1h-3.1V20.8c0.9,0,2-0.1,3.1-0.2v7.3l3.3-4L65,23.9
		L65,23.9z"/>
	<path class="st0" d="M72.7,29.3l1.3,0.4c-0.1,2-1.3,3-3.5,3c-2.9,0-4.3-1.4-4.3-4.3c0-1.4,0.4-2.5,1.1-3.4c0.8-0.9,1.7-1.3,2.9-1.3
		c2.5,0,3.7,1.6,3.7,4.8h-4.6c0,2.3,0.6,3.4,1.7,3.4s1.6-0.6,1.6-1.9C72.8,29.7,72.7,29.5,72.7,29.3z M69.4,27.5h1.9
		c0-2-0.3-3-0.9-3c-0.5,0-0.9,0.7-0.9,2.2L69.4,27.5z"/>
	<path class="st0" d="M68.7,36.7c-2.7,0-2.7-1.3-5.3-1.3c-2.7,0-2.7,1.3-5.3,1.3c-2.7,0-2.7-1.3-5.3-1.3c-2.7,0-2.7,1.3-5.3,1.3
		c-2.7,0-2.7-1.3-5.3-1.3s-2.7,1.3-5.1,1.3c-2.5-0.1-2.5-1.3-5.1-1.3c-2.7,0-2.7,1.3-5.3,1.3c-2.7,0-2.7-1.3-5.3-1.3
		s-2.7,1.3-5.3,1.3c-2.7,0-2.7-1.3-5.3-1.3c-2.7,0-2.7,1.3-5.3,1.3c-2.7,0-2.7-1.3-5.3-1.3v3.3c2.7,0,2.7,1.3,5.3,1.3
		s2.7-1.3,5.3-1.3c2.7,0,2.7,1.3,5.3,1.3c2.7,0,2.7-1.3,5.3-1.3c2.7,0,2.7,1.3,5.3,1.3c2.7,0,2.7-1.3,5.3-1.3c2.5,0,2.6,1.2,4.9,1.3
		l0,0c0.1,0,0.1,0,0.2,0c0.1,0,0.1,0,0.2,0l0,0c2.3-0.1,2.4-1.3,4.9-1.3c2.7,0,2.7,1.3,5.3,1.3c2.7,0,2.7-1.3,5.3-1.3
		c2.7,0,2.7,1.3,5.3,1.3c2.7,0,2.7-1.3,5.3-1.3c2.7,0,2.7,1.3,5.3,1.3c2.7,0,2.7-1.3,5.3-1.3v-3.3C71.3,35.3,71.3,36.7,68.7,36.7z"
		/>
</g>
</svg>
