<?xml version="1.0" encoding="utf-8"?>
<!-- Generator: Adobe Illustrator 22.0.1, SVG Export Plug-In . SVG Version: 6.00 Build 0)  -->
<svg version="1.1" id="Слой_1" xmlns="http://www.w3.org/2000/svg" xmlns:xlink="http://www.w3.org/1999/xlink" x="0px" y="0px"
	 viewBox="0 0 500 270" style="enable-background:new 0 0 500 270;" xml:space="preserve">
<style type="text/css">
	.st0{fill:#2690A8;}
	.st1{fill:#FF6927;}
	.st2{fill:#242424;}
</style>
<g>
	<path class="st0" d="M33.8,96.1c24.7,3.8,47.2,12.7,66.6,28.3c4,3.2,6.5,3.5,11,0.8c56.4-34.7,117.5-51.9,184.2-47.3
		c35.4,2.4,69.1,11.4,100.5,27.9c12.6,6.7,24.1,15.6,35.5,24.3c-112.2-55.5-220.7-42.4-328.1,15.1C84.5,123.2,61.2,106.7,33.8,96.1z
		"/>
	<path class="st1" d="M254.6,46.2c-8.8-5.5-16.8-10.5-26.1-16.4c1.2,11.2,2.3,20.7,3.3,30.2c-0.6,0.1-1.1,0.3-1.7,0.4
		c-5.4-16.2-10.8-32.5-16.9-51c13.8,6.9,25.5,12.8,37.7,19C257.8,19,264.4,9.9,271.8,0c7.1,9.6,13.9,18.7,21,28.2
		c12.2-6.1,24-12,37.8-18.9c-6,18.1-11.5,34.4-16.9,50.7c-0.6-0.1-1.1-0.3-1.7-0.4c1-9.4,2.1-18.7,3.3-29.7
		c-9.3,5.8-17.4,10.8-26.1,16.3c-5.7-7.2-11.3-14.1-17.2-21.6C265.9,32,260.5,38.8,254.6,46.2z"/>
	<path class="st2" d="M362.4,130.8c-0.2,6.6-4.5,11.5-10.2,11.5c-5.3,0-10-5.2-9.9-11c0.1-6.1,4.4-9.3,12-9
		C359.9,122.6,362.5,125.3,362.4,130.8z"/>
</g>
<g>
	<path class="st2" d="M0.7,219v-78.3h35.1c18.1,0,27.1,6.4,27.1,19.2c0,9.1-5.5,14.9-16.4,17.5c13.1,2.6,19.7,9.5,19.7,20.8
		c0,13.9-8.8,20.8-26.5,20.8H0.7z M23.6,174.8h7.1c6.5,0,9.8-4.8,9.8-14.3c0-8.8-3.4-13.3-10.3-13.3h-6.5V174.8z M23.6,212.6h6.5
		c8.6,0,12.8-4.9,12.8-14.6c0-11.1-4.4-16.7-13.2-16.7h-6.1V212.6z"/>
	<path class="st2" d="M100.4,159.7c19.3,0,28.9,10.1,28.9,30.3c0,20.2-9.6,30.3-28.9,30.3c-19.3,0-29-10.1-29-30.3
		C71.4,169.8,81.1,159.7,100.4,159.7z M100.3,164.8c-4.7,0-7,8.4-7,25.2s2.3,25.2,7,25.2c4.7,0,7.1-8.4,7.1-25.2
		S105,164.8,100.3,164.8z"/>
	<path class="st2" d="M164.4,159.7c19.3,0,28.9,10.1,28.9,30.3c0,20.2-9.6,30.3-28.9,30.3c-19.3,0-29-10.1-29-30.3
		C135.5,169.8,145.1,159.7,164.4,159.7z M164.4,164.8c-4.7,0-7,8.4-7,25.2s2.3,25.2,7,25.2c4.7,0,7.1-8.4,7.1-25.2
		S169.1,164.8,164.4,164.8z"/>
	<path class="st2" d="M254.1,161.2l-12,15l17.3,42.9h-22.3L227,193.6l-3.9,4.7V219h-21.1v-78.3c6.2,0,13.2-0.4,21.1-1.3v49
		l22.5-27.3H254.1z"/>
	<path class="st2" d="M288.4,140.7v70.5h32.4v7.9h-55.3v-78.3H288.4z"/>
	<path class="st2" d="M383.5,217c-5.2,2-10.2,3-15.1,3c-7.2,0-11.7-2.2-13.4-6.7c-3.5,4.7-8.6,7-15.1,7c-12.3,0-18.4-5.7-18.4-17
		c0-8.6,5.6-14.7,16.9-18.1c10.3-3.2,15.5-7.1,15.5-11.6c0-5.9-3-8.9-8.9-8.9c-6.9,0-10.3,2.9-10.3,8.6c0,1.8,0.5,4.2,1.6,7.1
		l-10.5-2c-0.3-1.8-0.4-3.5-0.4-5.1c0-9.2,8.4-13.8,25.3-13.8c16,0,24,4.3,24,12.9v35.1c0,3.6,1.2,5.4,3.5,5.4
		c0.7,0,1.8-0.4,3.2-1.2L383.5,217z M353.6,184.3c-1.3,1.5-2.8,2.7-4.6,3.7c-4.4,2.5-6.5,6.8-6.5,12.7c0,7.7,1.5,11.5,4.5,11.5
		c4.4,0,6.6-3.8,6.6-11.4V184.3z"/>
	<path class="st2" d="M439.3,161.2l-12,15l17.3,42.9h-22.3l-10.1-25.5l-3.9,4.7V219h-21.1v-78.3c6.2,0,13.2-0.4,21.1-1.3v49
		l22.5-27.3H439.3z"/>
	<path class="st2" d="M491.5,197.9l8.5,2.5c-0.9,13.4-8.8,20-23.8,20c-19.4,0-29.1-9.6-29.1-28.9c0-9.3,2.6-17,7.7-23
		c5.2-6,11.8-9,19.8-9c16.8,0,25.3,10.8,25.3,32.4h-30.8c0,15.2,3.9,22.7,11.6,22.7c7.2,0,10.9-4.3,10.9-12.9
		C491.6,200.7,491.5,199.4,491.5,197.9z M469,185.5h12.6c0-13.5-2-20.2-6.1-20.2c-3.7,0-5.8,5-6.2,15L469,185.5z"/>
</g>
<path class="st0" d="M464.1,247.4c-18,0-18-9-35.9-9c-18,0-18,9-35.9,9c-18,0-18-9-35.9-9c-18,0-18,9-35.9,9c-18,0-18-9-35.9-9
	c-17.5,0-18,8.5-34.5,8.9c-16.6-0.4-17.1-8.9-34.5-8.9c-18,0-18,9-35.9,9c-18,0-18-9-35.9-9s-18,9-35.9,9c-18,0-18-9-35.9-9
	c-18,0-18,9-35.9,9c-18,0-18-9-35.9-9V261c18,0,18,9,35.9,9s18-9,35.9-9c18,0,18,9,35.9,9c18,0,18-9,35.9-9c18,0,18,9,35.9,9
	c18,0,18-9,35.9-9c17,0,17.9,8,33.2,8.9v0.1c0.5,0,0.9,0,1.4,0c0.4,0,0.9,0,1.4,0v-0.1c15.3-0.9,16.2-8.9,33.2-8.9c18,0,18,9,35.9,9
	c18,0,18-9,35.9-9c18,0,18,9,35.9,9c18,0,18-9,35.9-9c18,0,18,9,35.9,9c18,0,18-9,35.9-9v-22.6C482,238.4,482,247.4,464.1,247.4z"/>
</svg>
